  0
SECTION
  2
HEADER
  9
$ANGBASE
  50
0.0
  9
$ANGDIR
  70
1
  9
$MEASUREMENT
  70
0
  0
ENDSEC
  0
SECTION
  2
TABLES
  0
TABLE
  2
LTYPE
  70
4
  0
LTYPE
  5
40F
  2
CONTINUOUS
  70
0
  3
Solid line
  72
65
  73
0
  40
0.0
  0
LTYPE
  5
410
  2
DASHDOT
 70
0
  3
Dash Dot ____ _ ____ _
 72
65
 73
4
 40
2.0
 49
1.25
 49
-0.25
 49
0.25
 49
-0.25
  0
LTYPE
  5
411
  2
DASHED
 70
0
  3
Dashed __ __ __ __ __
 72
65
 73
2
 40
0.75
 49
0.5
 49
-0.25
  0
LTYPE
  5
43B
  2
DOTTED
 70
0
  3
Dotted .  .  .  .
 72
65
 73
2
 40
0.2
 49
0.0
 49
-0.2
  0
ENDTAB
  0
TABLE
  2
STYLE
  70
4
  0
STYLE
  2
KICAD
  70
0
  40
0
  41
1
  42
1
  50
0
  71
0
  3
isocp.shx
  0
STYLE
  2
KICADB
  70
0
  40
0
  41
1
  42
1
  50
0
  71
0
  3
isocp.shx
  0
STYLE
  2
KICADI
  70
0
  40
0
  41
1
  42
1
  50
15
  71
0
  3
isocp.shx
  0
STYLE
  2
KICADBI
  70
0
  40
0
  41
1
  42
1
  50
15
  71
0
  3
isocp.shx
  0
ENDTAB
  0
TABLE
  2
LAYER
  70
1
  0
LAYER
  2
BLACK
  70
0
  62
7
  6
CONTINUOUS
  0
ENDTAB
  0
ENDSEC
  0
SECTION
  2
ENTITIES
0
LINE
8
BLACK
6
CONTINUOUS
10
3.69301
20
-3.54939
11
3.6806
21
-3.54743
0
LINE
8
BLACK
6
CONTINUOUS
10
3.6806
20
-3.54743
11
3.66846
21
-3.54418
0
LINE
8
BLACK
6
CONTINUOUS
10
3.66846
20
-3.54418
11
3.65672
21
-3.53967
0
LINE
8
BLACK
6
CONTINUOUS
10
3.65672
20
-3.53967
11
3.64553
21
-3.53396
0
LINE
8
BLACK
6
CONTINUOUS
10
3.64553
20
-3.53396
11
3.63498
21
-3.52712
0
LINE
8
BLACK
6
CONTINUOUS
10
3.63498
20
-3.52712
11
3.62522
21
-3.51921
0
LINE
8
BLACK
6
CONTINUOUS
10
3.62522
20
-3.51921
11
3.61633
21
-3.51032
0
LINE
8
BLACK
6
CONTINUOUS
10
3.61633
20
-3.51032
11
3.60842
21
-3.50055
0
LINE
8
BLACK
6
CONTINUOUS
10
3.60842
20
-3.50055
11
3.60157
21
-3.49001
0
LINE
8
BLACK
6
CONTINUOUS
10
3.60157
20
-3.49001
11
3.59587
21
-3.47881
0
LINE
8
BLACK
6
CONTINUOUS
10
3.59587
20
-3.47881
11
3.59136
21
-3.46708
0
LINE
8
BLACK
6
CONTINUOUS
10
3.59136
20
-3.46708
11
3.58811
21
-3.45494
0
LINE
8
BLACK
6
CONTINUOUS
10
3.58811
20
-3.45494
11
3.58614
21
-3.44253
0
LINE
8
BLACK
6
CONTINUOUS
10
3.58614
20
-3.44253
11
3.58549
21
-3.42998
0
LINE
8
BLACK
6
CONTINUOUS
10
3.58549
20
-3.42998
11
3.58549
21
-3.42997
0
LINE
8
BLACK
6
CONTINUOUS
10
3.58549
20
-3.42997
11
3.58549
21
-1.77643
0
LINE
8
BLACK
6
CONTINUOUS
10
3.58549
20
-1.77643
11
3.58614
21
-1.76388
0
LINE
8
BLACK
6
CONTINUOUS
10
3.58614
20
-1.76388
11
3.58811
21
-1.75146
0
LINE
8
BLACK
6
CONTINUOUS
10
3.58811
20
-1.75146
11
3.59136
21
-1.73932
0
LINE
8
BLACK
6
CONTINUOUS
10
3.59136
20
-1.73932
11
3.59587
21
-1.72759
0
LINE
8
BLACK
6
CONTINUOUS
10
3.59587
20
-1.72759
11
3.60157
21
-1.71639
0
LINE
8
BLACK
6
CONTINUOUS
10
3.60157
20
-1.71639
11
3.60842
21
-1.70585
0
LINE
8
BLACK
6
CONTINUOUS
10
3.60842
20
-1.70585
11
3.61633
21
-1.69608
0
LINE
8
BLACK
6
CONTINUOUS
10
3.61633
20
-1.69608
11
3.62522
21
-1.68719
0
LINE
8
BLACK
6
CONTINUOUS
10
3.62522
20
-1.68719
11
3.63498
21
-1.67928
0
LINE
8
BLACK
6
CONTINUOUS
10
3.63498
20
-1.67928
11
3.64553
21
-1.67244
0
LINE
8
BLACK
6
CONTINUOUS
10
3.64553
20
-1.67244
11
3.65672
21
-1.66673
0
LINE
8
BLACK
6
CONTINUOUS
10
3.65672
20
-1.66673
11
3.66846
21
-1.66223
0
LINE
8
BLACK
6
CONTINUOUS
10
3.66846
20
-1.66223
11
3.6806
21
-1.65898
0
LINE
8
BLACK
6
CONTINUOUS
10
3.6806
20
-1.65898
11
3.69301
21
-1.65701
0
LINE
8
BLACK
6
CONTINUOUS
10
3.69301
20
-1.65701
11
3.70556
21
-1.65635
0
LINE
8
BLACK
6
CONTINUOUS
10
3.70556
20
-1.65635
11
3.70556
21
-1.65635
0
LINE
8
BLACK
6
CONTINUOUS
10
3.70556
20
-1.65635
11
5.55596
21
-1.65635
0
LINE
8
BLACK
6
CONTINUOUS
10
5.55596
20
-1.65635
11
5.56851
21
-1.65701
0
LINE
8
BLACK
6
CONTINUOUS
10
5.56851
20
-1.65701
11
5.58092
21
-1.65898
0
LINE
8
BLACK
6
CONTINUOUS
10
5.58092
20
-1.65898
11
5.59307
21
-1.66223
0
LINE
8
BLACK
6
CONTINUOUS
10
5.59307
20
-1.66223
11
5.6048
21
-1.66673
0
LINE
8
BLACK
6
CONTINUOUS
10
5.6048
20
-1.66673
11
5.616
21
-1.67244
0
LINE
8
BLACK
6
CONTINUOUS
10
5.616
20
-1.67244
11
5.62654
21
-1.67928
0
LINE
8
BLACK
6
CONTINUOUS
10
5.62654
20
-1.67928
11
5.63631
21
-1.68719
0
LINE
8
BLACK
6
CONTINUOUS
10
5.63631
20
-1.68719
11
5.6452
21
-1.69608
0
LINE
8
BLACK
6
CONTINUOUS
10
5.6452
20
-1.69608
11
5.65311
21
-1.70585
0
LINE
8
BLACK
6
CONTINUOUS
10
5.65311
20
-1.70585
11
5.65995
21
-1.71639
0
LINE
8
BLACK
6
CONTINUOUS
10
5.65995
20
-1.71639
11
5.66566
21
-1.72759
0
LINE
8
BLACK
6
CONTINUOUS
10
5.66566
20
-1.72759
11
5.67016
21
-1.73932
0
LINE
8
BLACK
6
CONTINUOUS
10
5.67016
20
-1.73932
11
5.67341
21
-1.75146
0
LINE
8
BLACK
6
CONTINUOUS
10
5.67341
20
-1.75146
11
5.67538
21
-1.76388
0
LINE
8
BLACK
6
CONTINUOUS
10
5.67538
20
-1.76388
11
5.67604
21
-1.77643
0
LINE
8
BLACK
6
CONTINUOUS
10
5.67604
20
-1.77643
11
5.67604
21
-1.77643
0
LINE
8
BLACK
6
CONTINUOUS
10
5.67604
20
-1.77643
11
5.67604
21
-3.42997
0
LINE
8
BLACK
6
CONTINUOUS
10
5.67604
20
-3.42997
11
5.67538
21
-3.44253
0
LINE
8
BLACK
6
CONTINUOUS
10
5.67538
20
-3.44253
11
5.67341
21
-3.45494
0
LINE
8
BLACK
6
CONTINUOUS
10
5.67341
20
-3.45494
11
5.67016
21
-3.46708
0
LINE
8
BLACK
6
CONTINUOUS
10
5.67016
20
-3.46708
11
5.66566
21
-3.47881
0
LINE
8
BLACK
6
CONTINUOUS
10
5.66566
20
-3.47881
11
5.65995
21
-3.49001
0
LINE
8
BLACK
6
CONTINUOUS
10
5.65995
20
-3.49001
11
5.65311
21
-3.50056
0
LINE
8
BLACK
6
CONTINUOUS
10
5.65311
20
-3.50056
11
5.6452
21
-3.51032
0
LINE
8
BLACK
6
CONTINUOUS
10
5.6452
20
-3.51032
11
5.63631
21
-3.51921
0
LINE
8
BLACK
6
CONTINUOUS
10
5.63631
20
-3.51921
11
5.62654
21
-3.52712
0
LINE
8
BLACK
6
CONTINUOUS
10
5.62654
20
-3.52712
11
5.616
21
-3.53397
0
LINE
8
BLACK
6
CONTINUOUS
10
5.616
20
-3.53397
11
5.6048
21
-3.53967
0
LINE
8
BLACK
6
CONTINUOUS
10
5.6048
20
-3.53967
11
5.59307
21
-3.54418
0
LINE
8
BLACK
6
CONTINUOUS
10
5.59307
20
-3.54418
11
5.58092
21
-3.54743
0
LINE
8
BLACK
6
CONTINUOUS
10
5.58092
20
-3.54743
11
5.56851
21
-3.5494
0
LINE
8
BLACK
6
CONTINUOUS
10
5.56851
20
-3.5494
11
5.55596
21
-3.55005
0
LINE
8
BLACK
6
CONTINUOUS
10
5.55596
20
-3.55005
11
5.55596
21
-3.55005
0
LINE
8
BLACK
6
CONTINUOUS
10
5.55596
20
-3.55005
11
3.70556
21
-3.55005
0
LINE
8
BLACK
6
CONTINUOUS
10
3.70556
20
-3.55005
11
3.69301
21
-3.54939
0
LINE
8
BLACK
6
CONTINUOUS
10
3.70518
20
-1.66013
11
3.69254
21
-1.66084
0
LINE
8
BLACK
6
CONTINUOUS
10
3.69254
20
-1.66084
11
3.67968
21
-1.66302
0
LINE
8
BLACK
6
CONTINUOUS
10
3.67968
20
-1.66302
11
3.66714
21
-1.66663
0
LINE
8
BLACK
6
CONTINUOUS
10
3.66714
20
-1.66663
11
3.65509
21
-1.67163
0
LINE
8
BLACK
6
CONTINUOUS
10
3.65509
20
-1.67163
11
3.64368
21
-1.67794
0
LINE
8
BLACK
6
CONTINUOUS
10
3.64368
20
-1.67794
11
3.63304
21
-1.68548
0
LINE
8
BLACK
6
CONTINUOUS
10
3.63304
20
-1.68548
11
3.62331
21
-1.69418
0
LINE
8
BLACK
6
CONTINUOUS
10
3.62331
20
-1.69418
11
3.61462
21
-1.7039
0
LINE
8
BLACK
6
CONTINUOUS
10
3.61462
20
-1.7039
11
3.60707
21
-1.71454
0
LINE
8
BLACK
6
CONTINUOUS
10
3.60707
20
-1.71454
11
3.60076
21
-1.72596
0
LINE
8
BLACK
6
CONTINUOUS
10
3.60076
20
-1.72596
11
3.59577
21
-1.73801
0
LINE
8
BLACK
6
CONTINUOUS
10
3.59577
20
-1.73801
11
3.59216
21
-1.75055
0
LINE
8
BLACK
6
CONTINUOUS
10
3.59216
20
-1.75055
11
3.58997
21
-1.76341
0
LINE
8
BLACK
6
CONTINUOUS
10
3.58997
20
-1.76341
11
3.58926
21
-1.77604
0
LINE
8
BLACK
6
CONTINUOUS
10
3.58926
20
-1.77604
11
3.58942
21
-1.77643
0
LINE
8
BLACK
6
CONTINUOUS
10
3.58942
20
-1.77643
11
3.58942
21
-3.42997
0
LINE
8
BLACK
6
CONTINUOUS
10
3.58942
20
-3.42997
11
3.58931
21
-3.43025
0
LINE
8
BLACK
6
CONTINUOUS
10
3.58931
20
-3.43025
11
3.58926
21
-3.43036
0
LINE
8
BLACK
6
CONTINUOUS
10
3.58926
20
-3.43036
11
3.58997
21
-3.443
0
LINE
8
BLACK
6
CONTINUOUS
10
3.58997
20
-3.443
11
3.59216
21
-3.45586
0
LINE
8
BLACK
6
CONTINUOUS
10
3.59216
20
-3.45586
11
3.59577
21
-3.46839
0
LINE
8
BLACK
6
CONTINUOUS
10
3.59577
20
-3.46839
11
3.60076
21
-3.48044
0
LINE
8
BLACK
6
CONTINUOUS
10
3.60076
20
-3.48044
11
3.60707
21
-3.49186
0
LINE
8
BLACK
6
CONTINUOUS
10
3.60707
20
-3.49186
11
3.61462
21
-3.5025
0
LINE
8
BLACK
6
CONTINUOUS
10
3.61462
20
-3.5025
11
3.62331
21
-3.51223
0
LINE
8
BLACK
6
CONTINUOUS
10
3.62331
20
-3.51223
11
3.63304
21
-3.52092
0
LINE
8
BLACK
6
CONTINUOUS
10
3.63304
20
-3.52092
11
3.64368
21
-3.52847
0
LINE
8
BLACK
6
CONTINUOUS
10
3.64368
20
-3.52847
11
3.65509
21
-3.53478
0
LINE
8
BLACK
6
CONTINUOUS
10
3.65509
20
-3.53478
11
3.66715
21
-3.53977
0
LINE
8
BLACK
6
CONTINUOUS
10
3.66715
20
-3.53977
11
3.67968
21
-3.54338
0
LINE
8
BLACK
6
CONTINUOUS
10
3.67968
20
-3.54338
11
3.69254
21
-3.54557
0
LINE
8
BLACK
6
CONTINUOUS
10
3.69254
20
-3.54557
11
3.70518
21
-3.54628
0
LINE
8
BLACK
6
CONTINUOUS
10
3.70518
20
-3.54628
11
3.70556
21
-3.54612
0
LINE
8
BLACK
6
CONTINUOUS
10
3.70556
20
-3.54612
11
5.55596
21
-3.54612
0
LINE
8
BLACK
6
CONTINUOUS
10
5.55596
20
-3.54612
11
5.55635
21
-3.54628
0
LINE
8
BLACK
6
CONTINUOUS
10
5.55635
20
-3.54628
11
5.56898
21
-3.54557
0
LINE
8
BLACK
6
CONTINUOUS
10
5.56898
20
-3.54557
11
5.58184
21
-3.54338
0
LINE
8
BLACK
6
CONTINUOUS
10
5.58184
20
-3.54338
11
5.59438
21
-3.53977
0
LINE
8
BLACK
6
CONTINUOUS
10
5.59438
20
-3.53977
11
5.60643
21
-3.53478
0
LINE
8
BLACK
6
CONTINUOUS
10
5.60643
20
-3.53478
11
5.61785
21
-3.52847
0
LINE
8
BLACK
6
CONTINUOUS
10
5.61785
20
-3.52847
11
5.62849
21
-3.52092
0
LINE
8
BLACK
6
CONTINUOUS
10
5.62849
20
-3.52092
11
5.63821
21
-3.51223
0
LINE
8
BLACK
6
CONTINUOUS
10
5.63821
20
-3.51223
11
5.64691
21
-3.5025
0
LINE
8
BLACK
6
CONTINUOUS
10
5.64691
20
-3.5025
11
5.65445
21
-3.49186
0
LINE
8
BLACK
6
CONTINUOUS
10
5.65445
20
-3.49186
11
5.66076
21
-3.48045
0
LINE
8
BLACK
6
CONTINUOUS
10
5.66076
20
-3.48045
11
5.66576
21
-3.46839
0
LINE
8
BLACK
6
CONTINUOUS
10
5.66576
20
-3.46839
11
5.66937
21
-3.45586
0
LINE
8
BLACK
6
CONTINUOUS
10
5.66937
20
-3.45586
11
5.67155
21
-3.443
0
LINE
8
BLACK
6
CONTINUOUS
10
5.67155
20
-3.443
11
5.67226
21
-3.43036
0
LINE
8
BLACK
6
CONTINUOUS
10
5.67226
20
-3.43036
11
5.6721
21
-3.42997
0
LINE
8
BLACK
6
CONTINUOUS
10
5.6721
20
-3.42997
11
5.6721
21
-3.42997
0
LINE
8
BLACK
6
CONTINUOUS
10
5.6721
20
-3.42997
11
5.6721
21
-1.77643
0
LINE
8
BLACK
6
CONTINUOUS
10
5.6721
20
-1.77643
11
5.67226
21
-1.77604
0
LINE
8
BLACK
6
CONTINUOUS
10
5.67226
20
-1.77604
11
5.67155
21
-1.76341
0
LINE
8
BLACK
6
CONTINUOUS
10
5.67155
20
-1.76341
11
5.66937
21
-1.75055
0
LINE
8
BLACK
6
CONTINUOUS
10
5.66937
20
-1.75055
11
5.66576
21
-1.73801
0
LINE
8
BLACK
6
CONTINUOUS
10
5.66576
20
-1.73801
11
5.66076
21
-1.72596
0
LINE
8
BLACK
6
CONTINUOUS
10
5.66076
20
-1.72596
11
5.65445
21
-1.71454
0
LINE
8
BLACK
6
CONTINUOUS
10
5.65445
20
-1.71454
11
5.64691
21
-1.7039
0
LINE
8
BLACK
6
CONTINUOUS
10
5.64691
20
-1.7039
11
5.63821
21
-1.69418
0
LINE
8
BLACK
6
CONTINUOUS
10
5.63821
20
-1.69418
11
5.62849
21
-1.68548
0
LINE
8
BLACK
6
CONTINUOUS
10
5.62849
20
-1.68548
11
5.61785
21
-1.67793
0
LINE
8
BLACK
6
CONTINUOUS
10
5.61785
20
-1.67793
11
5.60643
21
-1.67162
0
LINE
8
BLACK
6
CONTINUOUS
10
5.60643
20
-1.67162
11
5.59438
21
-1.66663
0
LINE
8
BLACK
6
CONTINUOUS
10
5.59438
20
-1.66663
11
5.58184
21
-1.66302
0
LINE
8
BLACK
6
CONTINUOUS
10
5.58184
20
-1.66302
11
5.56898
21
-1.66084
0
LINE
8
BLACK
6
CONTINUOUS
10
5.56898
20
-1.66084
11
5.55635
21
-1.66013
0
LINE
8
BLACK
6
CONTINUOUS
10
5.55635
20
-1.66013
11
5.55596
21
-1.66029
0
LINE
8
BLACK
6
CONTINUOUS
10
5.55596
20
-1.66029
11
3.70556
21
-1.66029
0
LINE
8
BLACK
6
CONTINUOUS
10
3.70556
20
-1.66029
11
3.70518
21
-1.66013
  0
ENDSEC
  0
EOF
